HIERARCHY
ROOT Hips
{
 OFFSET 0.000000 0.000000 0.000000
 CHANNELS 6 Xposition Yposition Zposition Yrotation Xrotation Zrotation
 JOINT Chest
 {
  OFFSET 0.000000 9.585900 0.002600
  CHANNELS 3 Yrotation Xrotation Zrotation
  JOINT Chest2
  {
   OFFSET 0.000000 9.601200 -0.005300
   CHANNELS 3 Yrotation Xrotation Zrotation
   JOINT Chest3
   {
    OFFSET 0.000000 9.561800 0.000000
    CHANNELS 3 Yrotation Xrotation Zrotation
    JOINT Chest4
    {
     OFFSET 0.000000 9.552100 0.000000
     CHANNELS 3 Yrotation Xrotation Zrotation
     JOINT Neck
     {
      OFFSET 0.000000 14.453000 0.000000
      CHANNELS 3 Yrotation Xrotation Zrotation
      JOINT Head
      {
       OFFSET 0.000000 8.936500 -0.011300
       CHANNELS 3 Yrotation Xrotation Zrotation
       End Site
       {
        OFFSET 0.000000 17.073600 -0.006000
       }
      }
     }
     JOINT RightCollar
     {
      OFFSET -2.921100 9.558500 0.000000
      CHANNELS 3 Yrotation Xrotation Zrotation
      JOINT RightShoulder
      {
       OFFSET -13.519700 0.000000 0.000000
       CHANNELS 3 Yrotation Xrotation Zrotation
       JOINT RightElbow
       {
        OFFSET 0.000000 -29.696600 0.000000
        CHANNELS 3 Yrotation Xrotation Zrotation
        JOINT RightWrist
        {
         OFFSET 0.000000 -24.004700 0.000000
         CHANNELS 3 Yrotation Xrotation Zrotation
         End Site
         {
          OFFSET 0.000000 -17.728500 0.000000
         }
        }
       }
      }
     }
     JOINT LeftCollar
     {
      OFFSET 2.921100 9.558500 0.000000
      CHANNELS 3 Yrotation Xrotation Zrotation
      JOINT LeftShoulder
      {
       OFFSET 13.519700 0.000000 0.000000
       CHANNELS 3 Yrotation Xrotation Zrotation
       JOINT LeftElbow
       {
        OFFSET 0.000000 -29.696600 0.000000
        CHANNELS 3 Yrotation Xrotation Zrotation
        JOINT LeftWrist
        {
         OFFSET 0.000000 -24.004700 0.000000
         CHANNELS 3 Yrotation Xrotation Zrotation
         End Site
         {
          OFFSET 0.000000 -17.728500 0.000000
         }
        }
       }
      }
     }
    }
   }
  }
 }
 JOINT RightHip
 {
  OFFSET -7.771700 -0.012900 -0.001300
  CHANNELS 3 Yrotation Xrotation Zrotation
  JOINT RightKnee
  {
   OFFSET 0.000000 -40.869800 0.001200
   CHANNELS 3 Yrotation Xrotation Zrotation
   JOINT RightAnkle
   {
    OFFSET 0.000000 -39.717900 0.002100
    CHANNELS 3 Yrotation Xrotation Zrotation
    JOINT RightToe
    {
     OFFSET 0.000000 -4.965400 11.033500
     CHANNELS 3 Yrotation Xrotation Zrotation
     End Site
     {
      OFFSET 0.000000 -1.423100 5.872300
     }
    }
   }
  }
 }
 JOINT LeftHip
 {
  OFFSET 7.771700 -0.012900 -0.001300
  CHANNELS 3 Yrotation Xrotation Zrotation
  JOINT LeftKnee
  {
   OFFSET 0.000000 -40.869800 0.001200
   CHANNELS 3 Yrotation Xrotation Zrotation
   JOINT LeftAnkle
   {
    OFFSET 0.000000 -39.717900 0.002100
    CHANNELS 3 Yrotation Xrotation Zrotation
    JOINT LeftToe
    {
     OFFSET 0.000000 -4.965400 11.033500
     CHANNELS 3 Yrotation Xrotation Zrotation
     End Site
     {
      OFFSET 0.000000 -1.423100 5.872300
     }
    }
   }
  }
 }
}
MOTION
Frames: 7
Frame Time: 0.008333
0.000000 85.388000 0.000000 0.000000 -5.767877 0.000000 0.000000 11.653817 0.000000 0.000000 -5.885947 0.000000 0.000000 -0.000000 0.000000 0.000000 -0.000000 0.000000 0.000000 12.528835 0.000000 0.000000 0.711642 0.000000 0.000000 -0.000000 0.000000 0.000000 0.000000 -90.000000 0.000000 -2.309062 0.000000 0.000000 2.309062 0.000000 0.000000 -0.000000 0.000000 0.000000 -0.000000 90.000000 0.000000 -2.309062 0.000000 0.000000 2.309062 0.000000 0.000000 8.520406 0.000000 0.000000 1.905762 0.000000 -0.000000 -4.658285 0.000000 0.000000 -0.000000 0.000000 0.000000 8.520406 0.000000 0.000000 1.905762 0.000000 -0.000000 -4.658285 0.000000 0.000000 -0.000000 0.000000
-14.995970 57.423002 77.080452 -179.527818 -27.647584 -2.199028 4.554147 20.434457 5.208898 0.489841 2.741249 0.290173 0.755515 4.474187 0.500539 3.315326 17.699467 2.399315 -3.151859 9.011721 -2.229407 -5.104544 -19.073698 -2.860705 4.038412 -3.178181 -0.768241 28.247098 -31.053130 -29.323888 98.248601 -77.355882 -45.733134 12.675596 -5.882118 -19.719497 -9.102444 -6.800430 -2.008440 -9.127066 -16.541247 8.855151 -67.785354 -49.474999 30.757211 -17.778057 -23.648228 47.113809 6.275957 -43.771728 -4.782764 1.082990 67.194593 2.390386 5.850815 6.792372 4.429608 -0.061799 0.196864 0.010320 -10.947320 -51.181267 -1.683612 30.979823 65.071727 40.752684 -13.911433 30.825381 -8.114755 -0.728704 -13.528608 -7.069478
-14.985810 57.433546 77.077610 -179.529412 -27.661516 -2.129575 4.564710 20.448909 5.138738 0.528639 2.740995 0.281588 0.767858 4.474523 0.498595 3.363323 17.695429 2.396152 -3.122239 8.998856 -2.184734 -5.068032 -19.096813 -2.787120 3.996329 -3.232517 -0.702194 28.261308 -31.275102 -29.263595 98.208801 -77.350830 -45.941197 12.617823 -6.121913 -20.086169 -9.114860 -6.825489 -1.881455 -8.490031 -16.702170 8.539574 -67.976996 -49.663078 30.664753 -17.607306 -22.982475 46.503496 6.376443 -43.749409 -4.850082 1.074312 67.205262 2.355598 5.804456 6.782044 4.450118 -0.063918 0.197180 0.012426 -10.753541 -51.092209 -1.794367 30.646045 65.062592 40.469573 -14.052721 30.585063 -8.308257 -0.585341 -13.299913 -6.960619
-14.990684 57.444912 77.078694 -179.500050 -27.645113 -1.962028 4.539942 20.441565 4.951709 0.529464 2.737445 0.283807 0.778949 4.473778 0.496424 3.406906 17.689942 2.392102 -3.097339 8.997528 -2.142355 -5.039526 -19.098516 -2.716109 3.964486 -3.283142 -0.636607 28.320499 -31.486624 -29.243307 98.537686 -77.290005 -46.517071 12.532314 -6.387808 -20.484417 -9.097265 -6.843346 -1.733863 -7.838648 -16.919678 8.212216 -68.268176 -49.882328 30.542317 -17.419754 -22.288213 45.872420 6.552513 -43.758625 -5.077700 1.069494 67.247161 2.304636 5.764238 6.749931 4.485107 -0.064177 0.199103 0.019794 -10.449334 -51.036164 -2.096661 30.296326 65.023999 40.187452 -14.237690 30.295298 -8.549961 -0.398325 -12.989405 -6.834962
-14.970392 57.459950 77.080366 -179.476223 -27.624589 -1.928079 4.563292 20.415225 4.909794 0.531972 2.738407 0.289009 0.788583 4.471505 0.493559 3.445149 17.682485 2.385402 -3.078262 9.008323 -2.103485 -5.020588 -19.077780 -2.649423 3.931099 -3.320918 -0.570947 28.437950 -31.698428 -29.267263 99.065334 -77.207889 -47.291050 12.420262 -6.660719 -20.910421 -9.062529 -6.856519 -1.583927 -7.280379 -17.154637 7.891114 -68.577661 -50.100503 30.421313 -17.226201 -21.612727 45.255695 6.590551 -43.762984 -5.086158 0.995668 67.240984 2.186623 5.735350 6.747366 4.511557 -0.066611 0.198925 0.018661 -10.370981 -51.005631 -2.171013 30.068124 65.002692 40.008885 -14.248247 30.207488 -8.647558 -0.383957 -12.799246 -6.775731
-14.963282 57.477948 77.079703 -179.470908 -27.619146 -1.802002 4.596699 20.410515 4.795341 0.510837 2.737503 0.297363 0.762941 4.471863 0.489882 3.462606 17.678050 2.381203 -3.027457 9.020439 -2.091327 -5.011085 -19.033100 -2.592220 3.957657 -3.357554 -0.534499 28.589216 -31.906903 -29.322412 99.612136 -77.131372 -48.092634 12.294699 -6.936601 -21.347715 -8.977389 -6.877659 -1.471752 -6.899596 -17.371256 7.605336 -68.829654 -50.297428 30.325510 -17.053405 -20.990854 44.697858 6.708362 -43.753530 -5.236221 0.975335 67.255671 2.143003 5.723897 6.731875 4.520987 -0.064216 0.201534 0.013127 -10.236591 -50.926234 -2.332258 29.813662 64.928680 39.764597 -14.315162 30.052155 -8.769964 -0.309639 -12.601114 -6.724695
-14.951690 57.497509 77.077758 -179.468221 -27.623779 -1.705747 4.588215 20.421661 4.703824 0.540457 2.728753 0.308840 0.738394 4.476951 0.476820 3.530996 17.643127 2.373127 -3.040106 9.062302 -2.055000 -5.006580 -18.960919 -2.550543 3.940303 -3.364029 -0.478249 28.765064 -32.113774 -29.400886 100.057188 -77.082755 -48.809321 12.175402 -7.210568 -21.771413 -8.954279 -6.870649 -1.362840 -6.744155 -17.544954 7.377090 -68.978459 -50.456619 30.274822 -16.932257 -20.452372 44.237514 6.791338 -43.731966 -5.335983 0.949827 67.261250 2.095224 5.714848 6.721095 4.525482 -0.056153 0.203987 -0.000360 -10.237496 -50.871030 -2.406680 29.743255 64.857301 39.651447 -14.328165 30.031401 -8.765485 -0.280451 -12.545773 -6.775908
